<svg width="436" height="381" viewBox="0 0 436 381" fill="none" xmlns="http://www.w3.org/2000/svg">
<path d="M21.9897 129.833L1.01506 118.01C0.732135 105.361 3.53886 92.8343 9.19151 81.5171C14.0273 103.482 39.4764 113.933 51.2183 133.111C54.8347 139.121 57.0535 145.868 57.7101 152.852C58.3667 159.837 57.4444 166.879 55.0115 173.459L56.3909 190.489C45.5505 187.24 35.5429 181.677 27.0575 174.184C18.5721 166.692 11.8107 157.447 7.23922 147.087C4.73214 141.25 2.96954 135.12 1.99304 128.842C11.7723 129.884 21.9897 129.833 21.9897 129.833Z" fill="#F2F2F2"/>
<path d="M399.043 344.92L399.686 330.448C406.391 326.861 413.869 324.967 421.472 324.929C411.009 333.49 412.316 349.992 405.222 361.504C402.982 365.078 399.968 368.101 396.401 370.35C392.835 372.599 388.809 374.016 384.621 374.497L375.865 379.862C374.664 373.159 374.928 366.275 376.641 359.684C378.354 353.093 381.475 346.953 385.788 341.685C388.236 338.754 391.044 336.143 394.145 333.914C396.242 339.448 399.043 344.92 399.043 344.92Z" fill="#F2F2F2"/>
<path d="M376.483 372.414L368.554 372.413L364.782 341.809L376.484 341.81L376.483 372.414Z" fill="#FFB6B6"/>
<path d="M378.505 380.105L352.94 380.104V379.78C352.941 377.139 353.989 374.607 355.855 372.739C357.721 370.872 360.252 369.823 362.891 369.823L367.561 366.277L376.273 369.823L378.505 369.823L378.505 380.105Z" fill="#8C8C8C"/>
<path d="M339.649 372.414L331.721 372.413L327.949 341.809L339.651 341.81L339.649 372.414Z" fill="#FFB6B6"/>
<path d="M341.671 380.105L316.107 380.104V379.78C316.107 377.139 317.155 374.607 319.021 372.739C320.887 370.872 323.418 369.823 326.057 369.823L330.727 366.277L339.44 369.823L341.671 369.823L341.671 380.105Z" fill="#8C8C8C"/>
<path d="M336.217 205.099L387.787 206.39C397.581 211.713 397.729 223.236 394.52 236.916C394.52 236.916 395.604 245.047 393.437 247.216C391.27 249.384 390.187 249.384 391.27 253.179C392.354 256.973 386.63 263.171 387.325 263.867C388.02 264.562 389.645 268.357 389.645 268.357L384.229 299.256C384.229 299.256 380.437 352.922 379.354 354.006C378.27 355.09 377.187 354.006 378.27 356.717C379.354 359.427 380.437 358.343 379.354 359.427C378.394 360.462 377.49 361.548 376.645 362.68H363.549C363.549 362.68 362.562 357.259 362.562 356.717C362.562 356.175 361.478 352.922 361.478 352.38C361.478 351.838 362.436 350.88 362.436 350.88C362.767 349.778 362.99 348.646 363.103 347.501C363.103 346.417 366.354 304.677 366.354 304.677L359.853 250.468L344.145 303.592C344.145 303.592 344.145 350.212 343.062 351.296C341.978 352.38 341.978 351.838 342.52 354.006C343.062 356.175 345.228 355.632 343.603 357.259C341.978 358.885 341.437 356.175 341.978 358.885L342.52 361.595L326.27 361.828C326.27 361.828 324.103 357.259 325.186 355.632C326.27 354.006 326.205 354.45 324.883 351.789C323.561 349.127 323.02 348.585 323.561 348.043C324.103 347.501 324.103 344.618 324.103 344.618L326.811 292.751C326.811 292.751 327.353 238 327.353 236.374C327.394 235.537 327.24 234.702 326.903 233.935V231.728L328.978 223.906L336.217 205.099Z" fill="#8C8C8C"/>
<path d="M367.196 97.7873C376.045 97.7873 383.219 90.6081 383.219 81.7522C383.219 72.8963 376.045 65.7171 367.196 65.7171C358.346 65.7171 351.173 72.8963 351.173 81.7522C351.173 90.6081 358.346 97.7873 367.196 97.7873Z" fill="#FFB6B6"/>
<path d="M359.184 108.385C355.732 110.439 353.667 114.213 352.482 118.052C350.287 125.161 348.966 132.512 348.548 139.94L347.296 162.181L331.79 209.536C345.229 220.916 395.742 212.123 395.742 212.123C395.742 212.123 397.293 211.605 395.742 210.054C394.192 208.502 392.682 209.877 394.233 208.325C395.783 206.773 394.714 208.502 394.198 206.95C393.681 205.398 394.198 206.433 394.715 205.916C395.231 205.398 390.713 200.743 390.713 200.743L394.848 173.56L400.017 118.731C393.814 110.972 381.34 106.398 381.34 106.398L378.117 100.592L362.002 101.882L359.184 108.385Z" fill="#E6E6E6"/>
<path d="M356.987 72.3416C357.607 72.3464 358.224 72.4275 358.824 72.5828C360.007 72.8675 361.209 73.0692 362.42 73.1864C366.13 73.5356 369.615 75.1187 372.32 77.6829C375.025 80.2471 376.793 83.6443 377.342 87.3321C378.273 86.5198 380.392 85.0254 382.128 86.4142C382.154 86.4363 382.17 86.4476 382.231 86.4186C383.384 85.8712 385.431 79.1322 385.493 73.1987C385.526 70.0493 385.031 66.0278 382.486 64.7543L382.351 64.6872L382.316 64.5414C382.146 63.8329 380.246 62.6237 376.945 61.6825C370.944 59.9721 362 56.6401 356.963 61.5436C356.582 63.1967 355.342 66.7344 354.089 67.1353C352.702 67.5792 351.504 67.9622 351.315 69.6651C351.157 72.0884 351.169 74.5197 351.349 76.9414C351.819 75.4596 352.742 74.1625 353.987 73.233C354.873 72.6364 355.919 72.3254 356.987 72.3416Z" fill="#2F2E41"/>
<path d="M327.163 160.943L353.337 144.168L340.154 126.63L327.137 142.655L286.578 145.144C285.512 144.089 284.161 143.367 282.691 143.066C281.222 142.766 279.696 142.9 278.302 143.452C276.907 144.004 275.702 144.95 274.836 146.175C273.969 147.401 273.477 148.852 273.42 150.352C273.363 151.852 273.744 153.336 274.515 154.623C275.286 155.911 276.415 156.946 277.764 157.602C279.113 158.259 280.624 158.508 282.112 158.32C283.601 158.132 285.002 157.515 286.146 156.543L327.163 160.943Z" fill="#FFB6B6"/>
<path d="M377.629 120.753C379.149 129.953 350.462 147.522 350.462 147.522C350.461 145.363 333.339 161.665 332.566 159.874C330.37 154.784 328.826 142.728 325.756 140.798C324.001 139.695 336.328 129.328 336.328 129.328C336.328 129.328 342.78 122.822 351.247 114.617C353.598 112.253 356.509 110.522 359.707 109.587C362.906 108.651 366.29 108.54 369.543 109.265C369.543 109.265 376.11 111.553 377.629 120.753Z" fill="#E6E6E6"/>
<path d="M431.577 165.346L414.264 139.513L397.023 153.075L413.308 165.759L416.654 206.287C415.622 207.377 414.929 208.743 414.66 210.22C414.391 211.697 414.557 213.22 415.138 214.604C415.72 215.988 416.69 217.173 417.933 218.014C419.175 218.855 420.635 219.317 422.135 219.342C423.635 219.367 425.109 218.955 426.379 218.156C427.649 217.357 428.659 216.205 429.286 214.842C429.913 213.478 430.131 211.961 429.911 210.476C429.692 208.991 429.046 207.602 428.051 206.478L431.577 165.346Z" fill="#FFB6B6"/>
<path d="M390.359 115.704C399.518 113.989 417.677 142.319 417.677 142.319C415.519 142.365 432.168 159.151 430.395 159.962C425.357 162.268 413.345 164.068 411.482 167.18C410.417 168.959 399.799 156.846 399.799 156.846C399.799 156.846 393.164 150.528 384.787 142.23C382.376 139.928 380.585 137.052 379.583 133.872C378.58 130.691 378.398 127.308 379.053 124.038C379.053 124.038 381.2 117.418 390.359 115.704Z" fill="#E6E6E6"/>
<path d="M436 380.232C436 380.333 435.981 380.433 435.942 380.526C435.904 380.62 435.847 380.704 435.776 380.776C435.705 380.847 435.62 380.904 435.527 380.942C435.434 380.981 435.334 381 435.233 381H254.553C254.349 381 254.154 380.919 254.01 380.775C253.867 380.631 253.786 380.436 253.786 380.232C253.786 380.029 253.867 379.833 254.01 379.689C254.154 379.546 254.349 379.465 254.553 379.465H435.233C435.334 379.464 435.434 379.484 435.527 379.522C435.62 379.561 435.705 379.617 435.776 379.689C435.847 379.76 435.904 379.845 435.942 379.938C435.981 380.031 436 380.131 436 380.232Z" fill="#CCCCCC"/>
<path d="M268.621 147.596H49.341C45.9151 147.6 42.6306 148.963 40.2081 151.388C37.7856 153.812 36.423 157.099 36.4191 160.527V297.154C36.423 300.582 37.7857 303.869 40.2081 306.293C42.6306 308.718 45.9151 310.081 49.341 310.085H268.621C272.047 310.081 275.331 308.718 277.754 306.293C280.176 303.869 281.539 300.582 281.543 297.154V160.527C281.539 157.099 280.176 153.812 277.754 151.387C275.331 148.963 272.047 147.599 268.621 147.596Z" fill="#13C3C3"/>
<path d="M268.621 147.596H49.341C45.9151 147.6 42.6306 148.963 40.2081 151.388C37.7856 153.812 36.423 157.099 36.4191 160.527V297.154C36.423 300.582 37.7857 303.869 40.2081 306.293C42.6306 308.718 45.9151 310.081 49.341 310.085H268.621C272.047 310.081 275.331 308.718 277.754 306.293C280.176 303.869 281.539 300.582 281.543 297.154V160.527C281.539 157.099 280.176 153.812 277.754 151.387C275.331 148.963 272.047 147.599 268.621 147.596ZM272.861 245.736C272.809 259.645 267.311 272.98 257.548 282.88C247.784 292.779 234.532 298.455 220.635 298.689C198.385 298.979 232.946 299.092 206.111 299.092C144.748 299.092 80.7636 298.505 56.8902 298.124C53.7492 298.06 50.758 296.769 48.5552 294.527C46.3524 292.285 45.1126 289.27 45.1004 286.126V160.537C45.1017 159.412 45.5484 158.332 46.3429 157.535C47.1375 156.738 48.2151 156.288 49.3401 156.284H268.612C269.737 156.285 270.815 156.732 271.612 157.527C272.408 158.322 272.857 159.4 272.861 160.526V245.736Z" fill="#009999"/>
<path d="M241.628 68.9219H74.5596C73.0814 68.9241 71.6399 69.3827 70.4319 70.2352C69.2239 71.0877 68.3082 72.2926 67.8098 73.6853L42.0073 146.131C41.6222 147.212 41.5021 148.37 41.6572 149.508C41.8122 150.645 42.2378 151.729 42.8982 152.667C43.5586 153.606 44.4345 154.372 45.4523 154.902C46.47 155.431 47.6 155.708 48.7471 155.71L272.813 156.108H272.823C274.009 156.108 275.176 155.813 276.22 155.251C277.264 154.688 278.152 153.875 278.805 152.884C279.458 151.893 279.854 150.756 279.96 149.574C280.065 148.392 279.876 147.202 279.409 146.112L248.214 73.2682C247.663 71.9776 246.744 70.8776 245.573 70.1049C244.402 69.3322 243.03 68.9208 241.628 68.9219Z" fill="#009999"/>
<path d="M279.989 147.685C279.988 148.656 279.791 149.618 279.409 150.511L248.216 206.583C247.661 207.871 246.741 208.968 245.57 209.74C244.4 210.511 243.029 210.923 241.628 210.925H74.5622C73.0835 210.923 71.6413 210.465 70.4323 209.613C69.2232 208.761 68.3063 207.557 67.8066 206.164L42.009 150.491C41.6928 149.604 41.5544 148.664 41.6016 147.723C41.6489 146.783 41.8809 145.861 42.2844 145.01C42.6879 144.159 43.2549 143.396 43.9532 142.765C44.6515 142.134 45.4672 141.646 46.3538 141.331C47.1207 141.053 47.9299 140.912 48.7453 140.911L272.815 140.511H272.821C274.722 140.512 276.545 141.268 277.889 142.613C279.234 143.958 279.989 145.782 279.989 147.685Z" fill="#009999"/>
<path d="M65.7799 250.081C69.0928 250.081 114.587 252.864 114.587 256.179C114.587 259.494 69.0928 262.087 65.7799 262.087C64.189 262.087 62.6632 261.455 61.5383 260.329C60.4133 259.203 59.7814 257.676 59.7814 256.084C59.7814 254.492 60.4133 252.965 61.5383 251.839C62.6632 250.714 64.189 250.081 65.7799 250.081Z" fill="#009999"/>
<path d="M231.224 24.8499H90.3554C86.5801 24.8543 82.9608 26.3571 80.2913 29.0286C77.6218 31.7001 76.1201 35.3222 76.1158 39.1003V210.925L241.628 210.925C242.987 210.929 244.318 210.542 245.463 209.809V39.1003C245.459 35.3222 243.957 31.7001 241.288 29.0286C238.618 26.3571 234.999 24.8543 231.224 24.8499Z" fill="#E6E6E6"/>
<path d="M177.456 36.4038H100.257C96.8191 36.4071 93.5231 37.7748 91.0917 40.2068C88.6603 42.6389 87.2921 45.9367 87.287 49.3769V210.925H234.286V93.2765C234.268 78.1983 228.275 63.7426 217.622 53.0806C206.968 42.4187 192.523 36.4212 177.456 36.4038Z" fill="white"/>
<path d="M209.242 196.578H112.33C111.493 196.578 110.689 196.911 110.097 197.504C109.505 198.096 109.172 198.9 109.172 199.739C109.172 200.577 109.505 201.381 110.097 201.974C110.689 202.567 111.493 202.9 112.33 202.9H209.242C210.08 202.9 210.883 202.567 211.476 201.974C212.068 201.381 212.401 200.577 212.401 199.739C212.401 198.9 212.068 198.096 211.476 197.504C210.883 196.911 210.08 196.578 209.242 196.578Z" fill="#E4E4E4"/>
<path d="M209.242 184.076H112.33C111.492 184.076 110.688 184.409 110.095 185.002C109.502 185.596 109.169 186.401 109.169 187.24C109.169 188.079 109.502 188.884 110.095 189.477C110.688 190.071 111.492 190.404 112.33 190.404H209.242C210.081 190.404 210.885 190.071 211.478 189.477C212.071 188.884 212.404 188.079 212.404 187.24C212.404 186.401 212.071 185.596 211.478 185.002C210.885 184.409 210.081 184.076 209.242 184.076Z" fill="#E4E4E4"/>
<path d="M154.34 171.58H112.33C111.493 171.58 110.689 171.913 110.097 172.506C109.505 173.098 109.172 173.902 109.172 174.741C109.172 175.579 109.505 176.383 110.097 176.976C110.689 177.569 111.493 177.902 112.33 177.902H154.34C155.178 177.902 155.981 177.569 156.574 176.976C157.166 176.383 157.499 175.579 157.499 174.741C157.499 173.902 157.166 173.098 156.574 172.506C155.981 171.913 155.178 171.58 154.34 171.58Z" fill="#E4E4E4"/>
<path d="M209.242 145.401H112.33C111.492 145.401 110.688 145.735 110.095 146.328C109.502 146.921 109.169 147.726 109.169 148.566C109.169 149.405 109.502 150.21 110.095 150.803C110.688 151.396 111.492 151.73 112.33 151.73H209.242C210.081 151.73 210.885 151.396 211.478 150.803C212.071 150.21 212.404 149.405 212.404 148.566C212.404 147.726 212.071 146.921 211.478 146.328C210.885 145.735 210.081 145.401 209.242 145.401Z" fill="#E4E4E4"/>
<path d="M209.242 132.906H112.33C111.493 132.906 110.689 133.239 110.097 133.831C109.505 134.424 109.172 135.228 109.172 136.067C109.172 136.905 109.505 137.709 110.097 138.302C110.689 138.895 111.493 139.228 112.33 139.228H209.242C210.08 139.228 210.883 138.895 211.476 138.302C212.068 137.709 212.401 136.905 212.401 136.067C212.401 135.228 212.068 134.424 211.476 133.831C210.883 133.239 210.08 132.906 209.242 132.906Z" fill="#E4E4E4"/>
<path d="M154.34 120.403H112.33C111.492 120.403 110.688 120.737 110.095 121.33C109.502 121.924 109.169 122.728 109.169 123.568C109.169 124.407 109.502 125.212 110.095 125.805C110.688 126.398 111.492 126.732 112.33 126.732H154.34C155.179 126.732 155.983 126.398 156.576 125.805C157.169 125.212 157.502 124.407 157.502 123.568C157.502 122.728 157.169 121.924 156.576 121.33C155.983 120.737 155.179 120.403 154.34 120.403Z" fill="#E4E4E4"/>
<path d="M209.242 94.2248H112.33C111.492 94.2248 110.688 94.5582 110.095 95.1516C109.502 95.745 109.169 96.5499 109.169 97.3891C109.169 98.2283 109.502 99.0331 110.095 99.6265C110.688 100.22 111.492 100.553 112.33 100.553H209.242C210.081 100.553 210.885 100.22 211.478 99.6265C212.071 99.0331 212.404 98.2283 212.404 97.3891C212.404 96.5499 212.071 95.745 211.478 95.1516C210.885 94.5582 210.081 94.2248 209.242 94.2248Z" fill="#13C3C3"/>
<path d="M209.242 81.7291H112.33C111.492 81.7291 110.688 82.0625 110.095 82.6559C109.502 83.2493 109.169 84.0541 109.169 84.8933C109.169 85.7326 109.502 86.5374 110.095 87.1308C110.688 87.7242 111.492 88.0576 112.33 88.0576H209.242C210.081 88.0576 210.885 87.7242 211.478 87.1308C212.071 86.5374 212.404 85.7326 212.404 84.8933C212.404 84.0541 212.071 83.2493 211.478 82.6559C210.885 82.0625 210.081 81.7291 209.242 81.7291Z" fill="#13C3C3"/>
<path d="M154.34 69.2269H112.33C111.492 69.2269 110.688 69.5603 110.095 70.1537C109.502 70.7471 109.169 71.5519 109.169 72.3911C109.169 73.2304 109.502 74.0352 110.095 74.6286C110.688 75.222 111.492 75.5554 112.33 75.5554H154.34C155.179 75.5554 155.983 75.222 156.576 74.6286C157.169 74.0352 157.502 73.2304 157.502 72.3911C157.502 71.5519 157.169 70.7471 156.576 70.1537C155.983 69.5603 155.179 69.2269 154.34 69.2269Z" fill="#13C3C3"/>
<path d="M240.182 49.2383C253.769 49.2383 264.783 38.2159 264.783 24.6191C264.783 11.0224 253.769 0 240.182 0C226.596 0 215.582 11.0224 215.582 24.6191C215.582 38.2159 226.596 49.2383 240.182 49.2383Z" fill="#13C3C3"/>
<path d="M236.826 37.4323C236.401 37.4323 235.982 37.3333 235.602 37.1431C235.222 36.9529 234.892 36.6768 234.637 36.3366L227.926 27.3812C227.709 27.0935 227.551 26.766 227.461 26.4172C227.371 26.0683 227.351 25.7052 227.401 25.3485C227.451 24.9918 227.572 24.6485 227.755 24.3384C227.938 24.0283 228.181 23.7574 228.469 23.5413C228.757 23.3252 229.084 23.168 229.433 23.0788C229.782 22.9897 230.145 22.9703 230.501 23.0217C230.858 23.0732 231.2 23.1945 231.51 23.3787C231.819 23.5629 232.089 23.8063 232.304 24.0951L236.695 29.9536L247.972 13.0251C248.375 12.4207 249.001 12.0012 249.712 11.8588C250.424 11.7163 251.163 11.8626 251.767 12.2655C252.371 12.6684 252.79 13.2949 252.932 14.0071C253.075 14.7193 252.929 15.4589 252.526 16.0633L239.103 36.2127C238.86 36.5771 238.534 36.878 238.151 37.09C237.768 37.3021 237.34 37.4191 236.902 37.4314C236.877 37.4318 236.852 37.4323 236.826 37.4323Z" fill="white"/>
</svg>
