<svg width="160" height="123" viewBox="0 0 160 123" fill="none" xmlns="http://www.w3.org/2000/svg">
<path d="M0 114.912C4.896 114.336 8.88 110.88 11.952 104.544C15.12 98.112 18.144 87.504 21.024 72.72L34.992 0H66.24L52.272 72.72C48.72 91.536 44.016 104.64 38.16 112.032C35.088 115.872 31.584 118.56 27.648 120.096C23.808 121.632 19.776 122.4 15.552 122.4C11.328 122.4 7.872 121.632 5.184 120.096C2.4 118.56 0.672 116.832 0 114.912Z" fill="url(#paint0_linear_209_12)"/>
<path d="M123.744 0C147.264 0 159.024 8.304 159.024 24.912C159.024 34.032 156.096 41.328 150.24 46.8C144.48 52.272 136.56 55.008 126.48 55.008C121.776 55.008 117.6 53.664 113.952 50.976C112.224 49.824 110.784 48.48 109.632 46.944C116.64 46.944 121.968 44.832 125.616 40.608C129.36 36.288 131.232 29.952 131.232 21.6C131.232 13.248 127.104 9.072 118.848 9.072H115.392C114.816 9.072 114.288 9.12 113.808 9.216L97.248 96.048H66L83.712 1.728C93.984 0.768005 102.096 0.240005 108.048 0.144007C114 0.0480022 119.232 0 123.744 0Z" fill="url(#paint1_linear_209_12)"/>
<defs>
<linearGradient id="paint0_linear_209_12" x1="158.448" y1="-5.50001" x2="118.26" y2="143.845" gradientUnits="userSpaceOnUse">
<stop stop-color="#0F8080"/>
<stop offset="0.490865" stop-color="#00FFFF"/>
<stop offset="1" stop-color="#09B4B4"/>
</linearGradient>
<linearGradient id="paint1_linear_209_12" x1="24.7877" y1="-2.59272e-07" x2="60.512" y2="126.218" gradientUnits="userSpaceOnUse">
<stop stop-color="#0AC9C9"/>
<stop offset="0.553367" stop-color="#0AE3E3"/>
<stop offset="1" stop-color="#009999"/>
</linearGradient>
</defs>
</svg>
