<svg width="108" height="86" viewBox="0 0 108 86" fill="none" xmlns="http://www.w3.org/2000/svg">
<path d="M47.9573 48.375C47.9892 48.5362 49.007 62.6725 38.9466 73.6805C31.4706 81.8559 20.158 86 5.32858 86H0V70.8425L4.27885 69.9825C11.6376 68.499 16.7371 65.5589 19.444 61.2535C20.8303 58.991 21.6174 56.4073 21.73 53.75H5.32858C3.91536 53.75 2.56001 53.1837 1.56071 52.1757C0.561403 51.1677 0 49.8005 0 48.375V10.75C0 4.82137 4.77974 0 10.6572 0H42.6287C44.0419 0 45.3973 0.566295 46.3966 1.5743C47.3959 2.58231 47.9573 3.94946 47.9573 5.375V48.375Z" fill="url(#paint0_linear_214_18)"/>
<path d="M107.957 48.375C107.989 48.5362 109.007 62.6725 98.9466 73.6805C91.4706 81.8559 80.158 86 65.3286 86H60V70.8425L64.2789 69.9825C71.6376 68.499 76.7371 65.5589 79.444 61.2535C80.8303 58.991 81.6174 56.4073 81.73 53.75H65.3286C63.9154 53.75 62.56 53.1837 61.5607 52.1757C60.5614 51.1677 60 49.8005 60 48.375V10.75C60 4.82137 64.7797 0 70.6572 0H102.629C104.042 0 105.397 0.566295 106.397 1.5743C107.396 2.58231 107.957 3.94946 107.957 5.375V48.375Z" fill="url(#paint1_linear_214_18)"/>
<defs>
<linearGradient id="paint0_linear_214_18" x1="54" y1="0" x2="58.6595" y2="78.3936" gradientUnits="userSpaceOnUse">
<stop stop-color="#116969"/>
<stop offset="0.511699" stop-color="#14F2F2"/>
<stop offset="1" stop-color="#009999"/>
</linearGradient>
<linearGradient id="paint1_linear_214_18" x1="54" y1="0" x2="58.6595" y2="78.3936" gradientUnits="userSpaceOnUse">
<stop stop-color="#116969"/>
<stop offset="0.511699" stop-color="#14F2F2"/>
<stop offset="1" stop-color="#009999"/>
</linearGradient>
</defs>
</svg>
